<svg class="main-svg" xmlns="http://www.w3.org/2000/svg" xmlns:xlink="http://www.w3.org/1999/xlink" width="1250" height="500" style="" viewBox="0 0 1250 500"><rect x="0" y="0" width="1250" height="500" style="fill: rgb(255, 255, 255); fill-opacity: 1;"/><defs id="defs-69a2ba"><g class="clips"><clipPath id="clip69a2baxyplot" class="plotclip"><rect width="426.5625" height="360"/></clipPath><clipPath id="clip69a2bax2y2plot" class="plotclip"><rect width="426.5625" height="360"/></clipPath><clipPath class="axesclip" id="clip69a2bax"><rect x="99" y="0" width="426.5625" height="500"/></clipPath><clipPath class="axesclip" id="clip69a2bay"><rect x="0" y="60" width="1250" height="360"/></clipPath><clipPath class="axesclip" id="clip69a2baxy"><rect x="99" y="60" width="426.5625" height="360"/></clipPath><clipPath class="axesclip" id="clip69a2bay2"><rect x="0" y="60" width="1250" height="360"/></clipPath><clipPath class="axesclip" id="clip69a2baxy2"><rect x="99" y="60" width="426.5625" height="360"/></clipPath><clipPath class="axesclip" id="clip69a2bax2"><rect x="647.4375" y="0" width="426.5625" height="500"/></clipPath><clipPath class="axesclip" id="clip69a2bax2y"><rect x="647.4375" y="60" width="426.5625" height="360"/></clipPath><clipPath class="axesclip" id="clip69a2bax2y2"><rect x="647.4375" y="60" width="426.5625" height="360"/></clipPath></g><g class="gradients"/><g class="patterns"/></defs><g class="bglayer"/><g class="layer-below"><g class="imagelayer"/><g class="shapelayer"/></g><g class="cartesianlayer"><g class="subplot xy"><g class="layer-subplot"><g class="shapelayer"/><g class="imagelayer"/></g><g class="minor-gridlayer"><g class="x"/><g class="y"/></g><g class="gridlayer"><g class="x"/><g class="y"><path class="ygrid crisp" transform="translate(0,398.25)" d="M99,0h426.5625" style="stroke: rgb(235, 240, 248); stroke-opacity: 1; stroke-width: 1px;"/><path class="ygrid crisp" transform="translate(0,334.06)" d="M99,0h426.5625" style="stroke: rgb(235, 240, 248); stroke-opacity: 1; stroke-width: 1px;"/><path class="ygrid crisp" transform="translate(0,269.86)" d="M99,0h426.5625" style="stroke: rgb(235, 240, 248); stroke-opacity: 1; stroke-width: 1px;"/><path class="ygrid crisp" transform="translate(0,205.67)" d="M99,0h426.5625" style="stroke: rgb(235, 240, 248); stroke-opacity: 1; stroke-width: 1px;"/><path class="ygrid crisp" transform="translate(0,141.47)" d="M99,0h426.5625" style="stroke: rgb(235, 240, 248); stroke-opacity: 1; stroke-width: 1px;"/><path class="ygrid crisp" transform="translate(0,77.28)" d="M99,0h426.5625" style="stroke: rgb(235, 240, 248); stroke-opacity: 1; stroke-width: 1px;"/></g></g><g class="zerolinelayer"/><g class="layer-between"><g class="shapelayer"/><g class="imagelayer"/></g><path class="xlines-below"/><path class="ylines-below"/><g class="overlines-below"/><g class="xaxislayer-below"/><g class="yaxislayer-below"/><g class="overaxes-below"/><g class="overplot"><g class="xy" transform="translate(99,60)" clip-path="url(#clip69a2baxyplot)"><g class="scatterlayer mlayer"><g class="trace scatter trace4852a0" style="stroke-miterlimit: 2; opacity: 1;"><g class="fills"/><g class="errorbars"/><g class="lines"><path class="js-line" d="M25.08,330.94L119.18,221.87L213.28,173.99L307.38,87.65L401.48,43.7" style="vector-effect: none; fill: none; stroke: rgb(47, 80, 97); stroke-opacity: 1; stroke-width: 2px; opacity: 1;"/></g><g class="points"><path class="point" transform="translate(25.08,330.94)" d="M3,0A3,3 0 1,1 0,-3A3,3 0 0,1 3,0Z" style="opacity: 1; stroke-width: 0px; fill: rgb(47, 80, 97); fill-opacity: 1;"/><path class="point" transform="translate(119.18,221.87)" d="M3,0A3,3 0 1,1 0,-3A3,3 0 0,1 3,0Z" style="opacity: 1; stroke-width: 0px; fill: rgb(47, 80, 97); fill-opacity: 1;"/><path class="point" transform="translate(213.28,173.99)" d="M3,0A3,3 0 1,1 0,-3A3,3 0 0,1 3,0Z" style="opacity: 1; stroke-width: 0px; fill: rgb(47, 80, 97); fill-opacity: 1;"/><path class="point" transform="translate(307.38,87.65)" d="M3,0A3,3 0 1,1 0,-3A3,3 0 0,1 3,0Z" style="opacity: 1; stroke-width: 0px; fill: rgb(47, 80, 97); fill-opacity: 1;"/><path class="point" transform="translate(401.48,43.7)" d="M3,0A3,3 0 1,1 0,-3A3,3 0 0,1 3,0Z" style="opacity: 1; stroke-width: 0px; fill: rgb(47, 80, 97); fill-opacity: 1;"/></g><g class="text"/></g><g class="trace scatter trace05f16e" style="stroke-miterlimit: 2; opacity: 1;"><g class="fills"/><g class="errorbars"/><g class="lines"><path class="js-line" d="M25.08,338.25L119.18,238.97L213.28,171.72L307.38,110.27L401.48,70.75" style="vector-effect: none; fill: none; stroke: rgb(66, 151, 160); stroke-opacity: 1; stroke-width: 2px; opacity: 1;"/></g><g class="points"><path class="point" transform="translate(25.08,338.25)" d="M3,0A3,3 0 1,1 0,-3A3,3 0 0,1 3,0Z" style="opacity: 1; stroke-width: 0px; fill: rgb(66, 151, 160); fill-opacity: 1;"/><path class="point" transform="translate(119.18,238.97)" d="M3,0A3,3 0 1,1 0,-3A3,3 0 0,1 3,0Z" style="opacity: 1; stroke-width: 0px; fill: rgb(66, 151, 160); fill-opacity: 1;"/><path class="point" transform="translate(213.28,171.72)" d="M3,0A3,3 0 1,1 0,-3A3,3 0 0,1 3,0Z" style="opacity: 1; stroke-width: 0px; fill: rgb(66, 151, 160); fill-opacity: 1;"/><path class="point" transform="translate(307.38,110.27)" d="M3,0A3,3 0 1,1 0,-3A3,3 0 0,1 3,0Z" style="opacity: 1; stroke-width: 0px; fill: rgb(66, 151, 160); fill-opacity: 1;"/><path class="point" transform="translate(401.48,70.75)" d="M3,0A3,3 0 1,1 0,-3A3,3 0 0,1 3,0Z" style="opacity: 1; stroke-width: 0px; fill: rgb(66, 151, 160); fill-opacity: 1;"/></g><g class="text"/></g><g class="trace scatter tracea1b703" style="stroke-miterlimit: 2; opacity: 1;"><g class="fills"/><g class="errorbars"/><g class="lines"><path class="js-line" d="M25.08,323.46L119.18,208.47L213.28,158.41L307.38,68.62L401.48,36.63" style="vector-effect: none; fill: none; stroke: rgb(208, 193, 155); stroke-opacity: 1; stroke-width: 2px; opacity: 1;"/></g><g class="points"><path class="point" transform="translate(25.08,323.46)" d="M3,0A3,3 0 1,1 0,-3A3,3 0 0,1 3,0Z" style="opacity: 1; stroke-width: 0px; fill: rgb(208, 193, 155); fill-opacity: 1;"/><path class="point" transform="translate(119.18,208.47)" d="M3,0A3,3 0 1,1 0,-3A3,3 0 0,1 3,0Z" style="opacity: 1; stroke-width: 0px; fill: rgb(208, 193, 155); fill-opacity: 1;"/><path class="point" transform="translate(213.28,158.41)" d="M3,0A3,3 0 1,1 0,-3A3,3 0 0,1 3,0Z" style="opacity: 1; stroke-width: 0px; fill: rgb(208, 193, 155); fill-opacity: 1;"/><path class="point" transform="translate(307.38,68.62)" d="M3,0A3,3 0 1,1 0,-3A3,3 0 0,1 3,0Z" style="opacity: 1; stroke-width: 0px; fill: rgb(208, 193, 155); fill-opacity: 1;"/><path class="point" transform="translate(401.48,36.63)" d="M3,0A3,3 0 1,1 0,-3A3,3 0 0,1 3,0Z" style="opacity: 1; stroke-width: 0px; fill: rgb(208, 193, 155); fill-opacity: 1;"/></g><g class="text"/></g><g class="trace scatter tracee969e8" style="stroke-miterlimit: 2; opacity: 1;"><g class="fills"/><g class="errorbars"/><g class="lines"><path class="js-line" d="M25.08,295.7L119.18,207.12L213.28,98.06L307.38,25.35L401.48,21.75" style="vector-effect: none; fill: none; stroke: rgb(229, 127, 132); stroke-opacity: 1; stroke-width: 2px; opacity: 1;"/></g><g class="points"><path class="point" transform="translate(25.08,295.7)" d="M3,0A3,3 0 1,1 0,-3A3,3 0 0,1 3,0Z" style="opacity: 1; stroke-width: 0px; fill: rgb(229, 127, 132); fill-opacity: 1;"/><path class="point" transform="translate(119.18,207.12)" d="M3,0A3,3 0 1,1 0,-3A3,3 0 0,1 3,0Z" style="opacity: 1; stroke-width: 0px; fill: rgb(229, 127, 132); fill-opacity: 1;"/><path class="point" transform="translate(213.28,98.06)" d="M3,0A3,3 0 1,1 0,-3A3,3 0 0,1 3,0Z" style="opacity: 1; stroke-width: 0px; fill: rgb(229, 127, 132); fill-opacity: 1;"/><path class="point" transform="translate(307.38,25.35)" d="M3,0A3,3 0 1,1 0,-3A3,3 0 0,1 3,0Z" style="opacity: 1; stroke-width: 0px; fill: rgb(229, 127, 132); fill-opacity: 1;"/><path class="point" transform="translate(401.48,21.75)" d="M3,0A3,3 0 1,1 0,-3A3,3 0 0,1 3,0Z" style="opacity: 1; stroke-width: 0px; fill: rgb(229, 127, 132); fill-opacity: 1;"/></g><g class="text"/></g></g></g></g><path class="xlines-above crisp" d="M98,420.5H526.5625M98,59.5H526.5625" style="fill: none; stroke-width: 1px; stroke: rgb(0, 0, 0); stroke-opacity: 1;"/><path class="ylines-above crisp" d="M98.5,60V420M526.0625,60V420" style="fill: none; stroke-width: 1px; stroke: rgb(0, 0, 0); stroke-opacity: 1;"/><g class="overlines-above"/><g class="xaxislayer-above"><g class="xtick"><text text-anchor="middle" x="0" y="440.2" transform="translate(124.08,15)" style="font-family: Arial; font-size: 16px; fill: rgb(0, 0, 0); fill-opacity: 1; white-space: pre; opacity: 1;"><tspan style="font-style:italic">GFFx</tspan></text></g><g class="xtick"><text text-anchor="middle" x="0" y="440.2" transform="translate(218.18,15)" style="font-family: Arial; font-size: 16px; fill: rgb(0, 0, 0); fill-opacity: 1; white-space: pre; opacity: 1;"><tspan style="font-style:italic">bedtools</tspan></text></g><g class="xtick"><text text-anchor="middle" x="0" y="440.2" transform="translate(312.28,15)" style="font-family: Arial; font-size: 16px; fill: rgb(0, 0, 0); fill-opacity: 1; white-space: pre; opacity: 1;"><tspan style="font-style:italic">BCBio</tspan></text></g><g class="xtick"><text text-anchor="middle" x="0" y="440.2" transform="translate(406.38,15)" style="font-family: Arial; font-size: 16px; fill: rgb(0, 0, 0); fill-opacity: 1; white-space: pre; opacity: 1;"><tspan style="font-style:italic">gffutils</tspan></text></g><g class="xtick"><text text-anchor="middle" x="0" y="440.2" transform="translate(500.48,15)" style="font-family: Arial; font-size: 16px; fill: rgb(0, 0, 0); fill-opacity: 1; white-space: pre; opacity: 1;"><tspan style="font-style:italic">AGAT</tspan></text></g></g><g class="yaxislayer-above"><g class="ytick"><text text-anchor="end" x="94.8" y="5.6" transform="translate(-15,398.25)" style="font-family: Arial; font-size: 16px; fill: rgb(0, 0, 0); fill-opacity: 1; white-space: pre; opacity: 1;">0.1</text></g><g class="ytick"><text text-anchor="end" x="94.8" y="5.6" style="font-family: Arial; font-size: 16px; fill: rgb(0, 0, 0); fill-opacity: 1; white-space: pre; opacity: 1;" transform="translate(-15,334.06)">1</text></g><g class="ytick"><text text-anchor="end" x="94.8" y="5.6" style="font-family: Arial; font-size: 16px; fill: rgb(0, 0, 0); fill-opacity: 1; white-space: pre; opacity: 1;" transform="translate(-15,269.86)">10</text></g><g class="ytick"><text text-anchor="end" x="94.8" y="5.6" style="font-family: Arial; font-size: 16px; fill: rgb(0, 0, 0); fill-opacity: 1; white-space: pre; opacity: 1;" transform="translate(-15,205.67)">100</text></g><g class="ytick"><text text-anchor="end" x="94.8" y="5.6" style="font-family: Arial; font-size: 16px; fill: rgb(0, 0, 0); fill-opacity: 1; white-space: pre; opacity: 1;" transform="translate(-15,141.47)">1000</text></g><g class="ytick"><text text-anchor="end" x="94.8" y="5.6" style="font-family: Arial; font-size: 16px; fill: rgb(0, 0, 0); fill-opacity: 1; white-space: pre; opacity: 1;" transform="translate(-15,77.28)">10k</text></g></g><g class="overaxes-above"/></g><g class="subplot x2y2"><g class="layer-subplot"><g class="shapelayer"/><g class="imagelayer"/></g><g class="minor-gridlayer"><g class="x2"/><g class="y2"/></g><g class="gridlayer"><g class="x2"/><g class="y2"><path class="y2grid crisp" transform="translate(0,317.14)" d="M647.4375,0h426.5625" style="stroke: rgb(235, 240, 248); stroke-opacity: 1; stroke-width: 1px;"/><path class="y2grid crisp" transform="translate(0,214.29)" d="M647.4375,0h426.5625" style="stroke: rgb(235, 240, 248); stroke-opacity: 1; stroke-width: 1px;"/><path class="y2grid crisp" transform="translate(0,111.43)" d="M647.4375,0h426.5625" style="stroke: rgb(235, 240, 248); stroke-opacity: 1; stroke-width: 1px;"/></g></g><g class="zerolinelayer"/><g class="layer-between"><g class="shapelayer"/><g class="imagelayer"/></g><path class="xlines-below"/><path class="ylines-below"/><g class="overlines-below"/><g class="xaxislayer-below"/><g class="yaxislayer-below"/><g class="overaxes-below"/><g class="overplot"><g class="x2y2" transform="translate(647.4375,60)" clip-path="url(#clip69a2bax2y2plot)"><g class="scatterlayer mlayer"><g class="trace scatter tracef77dfd" style="stroke-miterlimit: 2; opacity: 1;"><g class="fills"/><g class="errorbars"/><g class="lines"><path class="js-line" d="M25.08,277.44L119.18,301.61L213.28,130.28L307.38,272.46L401.48,116.13" style="vector-effect: none; fill: none; stroke: rgb(47, 80, 97); stroke-opacity: 1; stroke-width: 2px; opacity: 1;"/></g><g class="points"><path class="point" transform="translate(25.08,277.44)" d="M3,0A3,3 0 1,1 0,-3A3,3 0 0,1 3,0Z" style="opacity: 1; stroke-width: 0px; fill: rgb(47, 80, 97); fill-opacity: 1;"/><path class="point" transform="translate(119.18,301.61)" d="M3,0A3,3 0 1,1 0,-3A3,3 0 0,1 3,0Z" style="opacity: 1; stroke-width: 0px; fill: rgb(47, 80, 97); fill-opacity: 1;"/><path class="point" transform="translate(213.28,130.28)" d="M3,0A3,3 0 1,1 0,-3A3,3 0 0,1 3,0Z" style="opacity: 1; stroke-width: 0px; fill: rgb(47, 80, 97); fill-opacity: 1;"/><path class="point" transform="translate(307.38,272.46)" d="M3,0A3,3 0 1,1 0,-3A3,3 0 0,1 3,0Z" style="opacity: 1; stroke-width: 0px; fill: rgb(47, 80, 97); fill-opacity: 1;"/><path class="point" transform="translate(401.48,116.13)" d="M3,0A3,3 0 1,1 0,-3A3,3 0 0,1 3,0Z" style="opacity: 1; stroke-width: 0px; fill: rgb(47, 80, 97); fill-opacity: 1;"/></g><g class="text"/></g><g class="trace scatter traceabf427" style="stroke-miterlimit: 2; opacity: 1;"><g class="fills"/><g class="errorbars"/><g class="lines"><path class="js-line" d="M25.08,271.22L119.18,301.29L213.28,119.42L307.38,272.65L401.48,105.97" style="vector-effect: none; fill: none; stroke: rgb(66, 151, 160); stroke-opacity: 1; stroke-width: 2px; opacity: 1;"/></g><g class="points"><path class="point" transform="translate(25.08,271.22)" d="M3,0A3,3 0 1,1 0,-3A3,3 0 0,1 3,0Z" style="opacity: 1; stroke-width: 0px; fill: rgb(66, 151, 160); fill-opacity: 1;"/><path class="point" transform="translate(119.18,301.29)" d="M3,0A3,3 0 1,1 0,-3A3,3 0 0,1 3,0Z" style="opacity: 1; stroke-width: 0px; fill: rgb(66, 151, 160); fill-opacity: 1;"/><path class="point" transform="translate(213.28,119.42)" d="M3,0A3,3 0 1,1 0,-3A3,3 0 0,1 3,0Z" style="opacity: 1; stroke-width: 0px; fill: rgb(66, 151, 160); fill-opacity: 1;"/><path class="point" transform="translate(307.38,272.65)" d="M3,0A3,3 0 1,1 0,-3A3,3 0 0,1 3,0Z" style="opacity: 1; stroke-width: 0px; fill: rgb(66, 151, 160); fill-opacity: 1;"/><path class="point" transform="translate(401.48,105.97)" d="M3,0A3,3 0 1,1 0,-3A3,3 0 0,1 3,0Z" style="opacity: 1; stroke-width: 0px; fill: rgb(66, 151, 160); fill-opacity: 1;"/></g><g class="text"/></g><g class="trace scatter traceb54ca8" style="stroke-miterlimit: 2; opacity: 1;"><g class="fills"/><g class="errorbars"/><g class="lines"><path class="js-line" d="M25.08,246.42L119.18,301.08L213.28,104.7L307.38,271.12L401.48,91.33" style="vector-effect: none; fill: none; stroke: rgb(208, 193, 155); stroke-opacity: 1; stroke-width: 2px; opacity: 1;"/></g><g class="points"><path class="point" transform="translate(25.08,246.42)" d="M3,0A3,3 0 1,1 0,-3A3,3 0 0,1 3,0Z" style="opacity: 1; stroke-width: 0px; fill: rgb(208, 193, 155); fill-opacity: 1;"/><path class="point" transform="translate(119.18,301.08)" d="M3,0A3,3 0 1,1 0,-3A3,3 0 0,1 3,0Z" style="opacity: 1; stroke-width: 0px; fill: rgb(208, 193, 155); fill-opacity: 1;"/><path class="point" transform="translate(213.28,104.7)" d="M3,0A3,3 0 1,1 0,-3A3,3 0 0,1 3,0Z" style="opacity: 1; stroke-width: 0px; fill: rgb(208, 193, 155); fill-opacity: 1;"/><path class="point" transform="translate(307.38,271.12)" d="M3,0A3,3 0 1,1 0,-3A3,3 0 0,1 3,0Z" style="opacity: 1; stroke-width: 0px; fill: rgb(208, 193, 155); fill-opacity: 1;"/><path class="point" transform="translate(401.48,91.33)" d="M3,0A3,3 0 1,1 0,-3A3,3 0 0,1 3,0Z" style="opacity: 1; stroke-width: 0px; fill: rgb(208, 193, 155); fill-opacity: 1;"/></g><g class="text"/></g><g class="trace scatter trace2720e8" style="stroke-miterlimit: 2; opacity: 1;"><g class="fills"/><g class="errorbars"/><g class="lines"><path class="js-line" d="M25.08,206.73L119.18,298.84L213.28,28.61L307.38,272.54L401.48,9.14" style="vector-effect: none; fill: none; stroke: rgb(229, 127, 132); stroke-opacity: 1; stroke-width: 2px; opacity: 1;"/></g><g class="points"><path class="point" transform="translate(25.08,206.73)" d="M3,0A3,3 0 1,1 0,-3A3,3 0 0,1 3,0Z" style="opacity: 1; stroke-width: 0px; fill: rgb(229, 127, 132); fill-opacity: 1;"/><path class="point" transform="translate(119.18,298.84)" d="M3,0A3,3 0 1,1 0,-3A3,3 0 0,1 3,0Z" style="opacity: 1; stroke-width: 0px; fill: rgb(229, 127, 132); fill-opacity: 1;"/><path class="point" transform="translate(213.28,28.61)" d="M3,0A3,3 0 1,1 0,-3A3,3 0 0,1 3,0Z" style="opacity: 1; stroke-width: 0px; fill: rgb(229, 127, 132); fill-opacity: 1;"/><path class="point" transform="translate(307.38,272.54)" d="M3,0A3,3 0 1,1 0,-3A3,3 0 0,1 3,0Z" style="opacity: 1; stroke-width: 0px; fill: rgb(229, 127, 132); fill-opacity: 1;"/><path class="point" transform="translate(401.48,9.14)" d="M3,0A3,3 0 1,1 0,-3A3,3 0 0,1 3,0Z" style="opacity: 1; stroke-width: 0px; fill: rgb(229, 127, 132); fill-opacity: 1;"/></g><g class="text"/></g></g></g></g><path class="xlines-above crisp" d="M646.4375,420.5H1075M646.4375,59.5H1075" style="fill: none; stroke-width: 1px; stroke: rgb(0, 0, 0); stroke-opacity: 1;"/><path class="ylines-above crisp" d="M646.9375,60V420M1074.5,60V420" style="fill: none; stroke-width: 1px; stroke: rgb(0, 0, 0); stroke-opacity: 1;"/><g class="overlines-above"/><g class="xaxislayer-above"><g class="x2tick"><text text-anchor="middle" x="0" y="440.2" transform="translate(672.5175,15)" style="font-family: Arial; font-size: 16px; fill: rgb(0, 0, 0); fill-opacity: 1; white-space: pre; opacity: 1;"><tspan style="font-style:italic">GFFx</tspan></text></g><g class="x2tick"><text text-anchor="middle" x="0" y="440.2" transform="translate(766.6175000000001,15)" style="font-family: Arial; font-size: 16px; fill: rgb(0, 0, 0); fill-opacity: 1; white-space: pre; opacity: 1;"><tspan style="font-style:italic">bedtools</tspan></text></g><g class="x2tick"><text text-anchor="middle" x="0" y="440.2" transform="translate(860.7175,15)" style="font-family: Arial; font-size: 16px; fill: rgb(0, 0, 0); fill-opacity: 1; white-space: pre; opacity: 1;"><tspan style="font-style:italic">BCBio</tspan></text></g><g class="x2tick"><text text-anchor="middle" x="0" y="440.2" transform="translate(954.8175,15)" style="font-family: Arial; font-size: 16px; fill: rgb(0, 0, 0); fill-opacity: 1; white-space: pre; opacity: 1;"><tspan style="font-style:italic">gffutils</tspan></text></g><g class="x2tick"><text text-anchor="middle" x="0" y="440.2" transform="translate(1048.9175,15)" style="font-family: Arial; font-size: 16px; fill: rgb(0, 0, 0); fill-opacity: 1; white-space: pre; opacity: 1;"><tspan style="font-style:italic">AGAT</tspan></text></g></g><g class="yaxislayer-above"><g class="y2tick"><text text-anchor="end" x="643.2375" y="5.6" transform="translate(-15,420)" style="font-family: Arial; font-size: 16px; fill: rgb(0, 0, 0); fill-opacity: 1; white-space: pre; opacity: 1;">10</text></g><g class="y2tick"><text text-anchor="end" x="643.2375" y="5.6" style="font-family: Arial; font-size: 16px; fill: rgb(0, 0, 0); fill-opacity: 1; white-space: pre; opacity: 1;" transform="translate(-15,317.14)">100</text></g><g class="y2tick"><text text-anchor="end" x="643.2375" y="5.6" style="font-family: Arial; font-size: 16px; fill: rgb(0, 0, 0); fill-opacity: 1; white-space: pre; opacity: 1;" transform="translate(-15,214.29)">1000</text></g><g class="y2tick"><text text-anchor="end" x="643.2375" y="5.6" style="font-family: Arial; font-size: 16px; fill: rgb(0, 0, 0); fill-opacity: 1; white-space: pre; opacity: 1;" transform="translate(-15,111.43)">10k</text></g></g><g class="overaxes-above"/></g></g><g class="polarlayer"/><g class="smithlayer"/><g class="ternarylayer"/><g class="geolayer"/><g class="funnelarealayer"/><g class="pielayer"/><g class="iciclelayer"/><g class="treemaplayer"/><g class="sunburstlayer"/><g class="glimages"/><defs id="topdefs-69a2ba"><g class="clips"/><clipPath id="legend69a2ba"><rect width="145" height="130" x="0" y="0"/></clipPath></defs><g class="layer-above"><g class="imagelayer"/><g class="shapelayer"/></g><g class="infolayer"><g class="legend" pointer-events="all" transform="translate(1093.5,60)"><rect class="bg" shape-rendering="crispEdges" style="stroke: rgb(68, 68, 68); stroke-opacity: 1; fill: rgb(255, 255, 255); fill-opacity: 1; stroke-width: 0px;" width="145" height="130" x="0" y="0"/><g class="scrollbox" transform="" clip-path="url(#legend69a2ba)"><text class="legendtitletext" text-anchor="start" x="2" y="24.7" style="font-family: Arial; font-size: 19px; fill: rgb(0, 0, 0); fill-opacity: 1; white-space: pre;"><tspan style="font-weight:bold">Dataset</tspan></text><g class="groups" transform=""><g class="traces" transform="translate(0,41.6)" style="opacity: 1;"><text class="legendtext" text-anchor="start" x="40" y="6.24" style="font-family: Arial; font-size: 16px; fill: rgb(0, 0, 0); fill-opacity: 1; white-space: pre;"><tspan style="font-style:italic">dm6</tspan></text><g class="layers" style="opacity: 1;"><g class="legendfill"/><g class="legendlines"><path class="js-line" d="M5,0h30" style="fill: none; stroke: rgb(47, 80, 97); stroke-opacity: 1; stroke-width: 2px;"/></g><g class="legendsymbols"><g class="legendpoints"><path class="scatterpts" transform="translate(20,0)" d="M3,0A3,3 0 1,1 0,-3A3,3 0 0,1 3,0Z" style="opacity: 1; stroke-width: 0px; fill: rgb(47, 80, 97); fill-opacity: 1;"/></g></g></g><rect class="legendtoggle" x="0" y="-11.9" width="140" height="23.8" style="fill: rgb(0, 0, 0); fill-opacity: 0;"/></g></g><g class="groups" transform=""><g class="traces" transform="translate(0,65.4)" style="opacity: 1;"><text class="legendtext" text-anchor="start" x="40" y="6.24" style="font-family: Arial; font-size: 16px; fill: rgb(0, 0, 0); fill-opacity: 1; white-space: pre;"><tspan style="font-style:italic">ceob_ps_1.0</tspan></text><g class="layers" style="opacity: 1;"><g class="legendfill"/><g class="legendlines"><path class="js-line" d="M5,0h30" style="fill: none; stroke: rgb(66, 151, 160); stroke-opacity: 1; stroke-width: 2px;"/></g><g class="legendsymbols"><g class="legendpoints"><path class="scatterpts" transform="translate(20,0)" d="M3,0A3,3 0 1,1 0,-3A3,3 0 0,1 3,0Z" style="opacity: 1; stroke-width: 0px; fill: rgb(66, 151, 160); fill-opacity: 1;"/></g></g></g><rect class="legendtoggle" x="0" y="-11.9" width="140" height="23.8" style="fill: rgb(0, 0, 0); fill-opacity: 0;"/></g></g><g class="groups" transform=""><g class="traces" transform="translate(0,89.2)" style="opacity: 1;"><text class="legendtext" text-anchor="start" x="40" y="6.24" style="font-family: Arial; font-size: 16px; fill: rgb(0, 0, 0); fill-opacity: 1; white-space: pre;"><tspan style="font-style:italic">tair10.1</tspan></text><g class="layers" style="opacity: 1;"><g class="legendfill"/><g class="legendlines"><path class="js-line" d="M5,0h30" style="fill: none; stroke: rgb(208, 193, 155); stroke-opacity: 1; stroke-width: 2px;"/></g><g class="legendsymbols"><g class="legendpoints"><path class="scatterpts" transform="translate(20,0)" d="M3,0A3,3 0 1,1 0,-3A3,3 0 0,1 3,0Z" style="opacity: 1; stroke-width: 0px; fill: rgb(208, 193, 155); fill-opacity: 1;"/></g></g></g><rect class="legendtoggle" x="0" y="-11.9" width="140" height="23.8" style="fill: rgb(0, 0, 0); fill-opacity: 0;"/></g></g><g class="groups" transform=""><g class="traces" transform="translate(0,113.00000000000001)" style="opacity: 1;"><text class="legendtext" text-anchor="start" x="40" y="6.24" style="font-family: Arial; font-size: 16px; fill: rgb(0, 0, 0); fill-opacity: 1; white-space: pre;"><tspan style="font-style:italic">hg38</tspan></text><g class="layers" style="opacity: 1;"><g class="legendfill"/><g class="legendlines"><path class="js-line" d="M5,0h30" style="fill: none; stroke: rgb(229, 127, 132); stroke-opacity: 1; stroke-width: 2px;"/></g><g class="legendsymbols"><g class="legendpoints"><path class="scatterpts" transform="translate(20,0)" d="M3,0A3,3 0 1,1 0,-3A3,3 0 0,1 3,0Z" style="opacity: 1; stroke-width: 0px; fill: rgb(229, 127, 132); fill-opacity: 1;"/></g></g></g><rect class="legendtoggle" x="0" y="-11.9" width="140" height="23.8" style="fill: rgb(0, 0, 0); fill-opacity: 0;"/></g></g></g><rect class="scrollbar" rx="20" ry="3" width="0" height="0" style="fill: rgb(128, 139, 164); fill-opacity: 1;" x="0" y="0"/></g><g class="g-gtitle"/><g class="g-xtitle"/><g class="g-x2title"/><g class="g-ytitle"><text class="ytitle" transform="rotate(-90,18.996875000000003,240)" x="18.996875000000003" y="240" text-anchor="middle" style="opacity: 1; font-family: Arial; font-size: 18px; fill: rgb(0, 0, 0); fill-opacity: 1; white-space: pre;"><tspan style="font-weight:bold">Wall clock time (s)</tspan></text></g><g class="g-y2title"><text class="y2title" transform="rotate(-90,567.434375,240)" x="567.434375" y="240" text-anchor="middle" style="opacity: 1; font-family: Arial; font-size: 18px; fill: rgb(0, 0, 0); fill-opacity: 1; white-space: pre;"><tspan style="font-weight:bold">Max RSS (Mb)</tspan></text></g></g></svg>