<svg class="main-svg" xmlns="http://www.w3.org/2000/svg" xmlns:xlink="http://www.w3.org/1999/xlink" width="1250" height="500" style="" viewBox="0 0 1250 500"><rect x="0" y="0" width="1250" height="500" style="fill: rgb(255, 255, 255); fill-opacity: 1;"/><defs id="defs-3c189c"><g class="clips"><clipPath id="clip3c189cxyplot" class="plotclip"><rect width="409.0625" height="360"/></clipPath><clipPath id="clip3c189cx2y2plot" class="plotclip"><rect width="409.0625" height="360"/></clipPath><clipPath class="axesclip" id="clip3c189cx"><rect x="114" y="0" width="409.0625" height="500"/></clipPath><clipPath class="axesclip" id="clip3c189cy"><rect x="0" y="60" width="1250" height="360"/></clipPath><clipPath class="axesclip" id="clip3c189cxy"><rect x="114" y="60" width="409.0625" height="360"/></clipPath><clipPath class="axesclip" id="clip3c189cy2"><rect x="0" y="60" width="1250" height="360"/></clipPath><clipPath class="axesclip" id="clip3c189cxy2"><rect x="114" y="60" width="409.0625" height="360"/></clipPath><clipPath class="axesclip" id="clip3c189cx2"><rect x="639.9375" y="0" width="409.0625" height="500"/></clipPath><clipPath class="axesclip" id="clip3c189cx2y"><rect x="639.9375" y="60" width="409.0625" height="360"/></clipPath><clipPath class="axesclip" id="clip3c189cx2y2"><rect x="639.9375" y="60" width="409.0625" height="360"/></clipPath></g><g class="gradients"/><g class="patterns"/></defs><g class="bglayer"/><g class="layer-below"><g class="imagelayer"/><g class="shapelayer"/></g><g class="cartesianlayer"><g class="subplot xy"><g class="layer-subplot"><g class="shapelayer"/><g class="imagelayer"/></g><g class="minor-gridlayer"><g class="x"/><g class="y"/></g><g class="gridlayer"><g class="x"/><g class="y"><path class="ygrid crisp" transform="translate(0,357.85)" d="M114,0h409.0625" style="stroke: rgb(235, 240, 248); stroke-opacity: 1; stroke-width: 1px;"/><path class="ygrid crisp" transform="translate(0,264.28999999999996)" d="M114,0h409.0625" style="stroke: rgb(235, 240, 248); stroke-opacity: 1; stroke-width: 1px;"/><path class="ygrid crisp" transform="translate(0,170.73000000000002)" d="M114,0h409.0625" style="stroke: rgb(235, 240, 248); stroke-opacity: 1; stroke-width: 1px;"/><path class="ygrid crisp" transform="translate(0,77.18)" d="M114,0h409.0625" style="stroke: rgb(235, 240, 248); stroke-opacity: 1; stroke-width: 1px;"/></g></g><g class="zerolinelayer"/><g class="layer-between"><g class="shapelayer"/><g class="imagelayer"/></g><path class="xlines-below"/><path class="ylines-below"/><g class="overlines-below"/><g class="xaxislayer-below"/><g class="yaxislayer-below"/><g class="overaxes-below"/><g class="overplot"><g class="xy" transform="translate(114,60)" clip-path="url(#clip3c189cxyplot)"><g class="scatterlayer mlayer"><g class="trace scatter trace660b0a" style="stroke-miterlimit: 2; opacity: 1;"><g class="fills"/><g class="errorbars"/><g class="lines"><path class="js-line" d="M24.2,338.25L114.37,214.57L204.53,119.65L294.7,147.03L384.86,117.06" style="vector-effect: none; fill: none; stroke: rgb(47, 80, 97); stroke-opacity: 1; stroke-width: 2px; opacity: 1;"/></g><g class="points"><path class="point" transform="translate(24.2,338.25)" d="M3,0A3,3 0 1,1 0,-3A3,3 0 0,1 3,0Z" style="opacity: 1; stroke-width: 0px; fill: rgb(47, 80, 97); fill-opacity: 1;"/><path class="point" transform="translate(114.37,214.57)" d="M3,0A3,3 0 1,1 0,-3A3,3 0 0,1 3,0Z" style="opacity: 1; stroke-width: 0px; fill: rgb(47, 80, 97); fill-opacity: 1;"/><path class="point" transform="translate(204.53,119.65)" d="M3,0A3,3 0 1,1 0,-3A3,3 0 0,1 3,0Z" style="opacity: 1; stroke-width: 0px; fill: rgb(47, 80, 97); fill-opacity: 1;"/><path class="point" transform="translate(294.7,147.03)" d="M3,0A3,3 0 1,1 0,-3A3,3 0 0,1 3,0Z" style="opacity: 1; stroke-width: 0px; fill: rgb(47, 80, 97); fill-opacity: 1;"/><path class="point" transform="translate(384.86,117.06)" d="M3,0A3,3 0 1,1 0,-3A3,3 0 0,1 3,0Z" style="opacity: 1; stroke-width: 0px; fill: rgb(47, 80, 97); fill-opacity: 1;"/></g><g class="text"/></g><g class="trace scatter trace19f003" style="stroke-miterlimit: 2; opacity: 1;"><g class="fills"/><g class="errorbars"/><g class="lines"><path class="js-line" d="M24.2,334.08L114.37,232.01L204.53,113.65L294.7,153.92L384.86,105.19" style="vector-effect: none; fill: none; stroke: rgb(66, 151, 160); stroke-opacity: 1; stroke-width: 2px; opacity: 1;"/></g><g class="points"><path class="point" transform="translate(24.2,334.08)" d="M3,0A3,3 0 1,1 0,-3A3,3 0 0,1 3,0Z" style="opacity: 1; stroke-width: 0px; fill: rgb(66, 151, 160); fill-opacity: 1;"/><path class="point" transform="translate(114.37,232.01)" d="M3,0A3,3 0 1,1 0,-3A3,3 0 0,1 3,0Z" style="opacity: 1; stroke-width: 0px; fill: rgb(66, 151, 160); fill-opacity: 1;"/><path class="point" transform="translate(204.53,113.65)" d="M3,0A3,3 0 1,1 0,-3A3,3 0 0,1 3,0Z" style="opacity: 1; stroke-width: 0px; fill: rgb(66, 151, 160); fill-opacity: 1;"/><path class="point" transform="translate(294.7,153.92)" d="M3,0A3,3 0 1,1 0,-3A3,3 0 0,1 3,0Z" style="opacity: 1; stroke-width: 0px; fill: rgb(66, 151, 160); fill-opacity: 1;"/><path class="point" transform="translate(384.86,105.19)" d="M3,0A3,3 0 1,1 0,-3A3,3 0 0,1 3,0Z" style="opacity: 1; stroke-width: 0px; fill: rgb(66, 151, 160); fill-opacity: 1;"/></g><g class="text"/></g><g class="trace scatter trace92bf8f" style="stroke-miterlimit: 2; opacity: 1;"><g class="fills"/><g class="errorbars"/><g class="lines"><path class="js-line" d="M24.2,337.7L114.37,203.01L204.53,109.28L294.7,138.85L384.86,96.7" style="vector-effect: none; fill: none; stroke: rgb(208, 193, 155); stroke-opacity: 1; stroke-width: 2px; opacity: 1;"/></g><g class="points"><path class="point" transform="translate(24.2,337.7)" d="M3,0A3,3 0 1,1 0,-3A3,3 0 0,1 3,0Z" style="opacity: 1; stroke-width: 0px; fill: rgb(208, 193, 155); fill-opacity: 1;"/><path class="point" transform="translate(114.37,203.01)" d="M3,0A3,3 0 1,1 0,-3A3,3 0 0,1 3,0Z" style="opacity: 1; stroke-width: 0px; fill: rgb(208, 193, 155); fill-opacity: 1;"/><path class="point" transform="translate(204.53,109.28)" d="M3,0A3,3 0 1,1 0,-3A3,3 0 0,1 3,0Z" style="opacity: 1; stroke-width: 0px; fill: rgb(208, 193, 155); fill-opacity: 1;"/><path class="point" transform="translate(294.7,138.85)" d="M3,0A3,3 0 1,1 0,-3A3,3 0 0,1 3,0Z" style="opacity: 1; stroke-width: 0px; fill: rgb(208, 193, 155); fill-opacity: 1;"/><path class="point" transform="translate(384.86,96.7)" d="M3,0A3,3 0 1,1 0,-3A3,3 0 0,1 3,0Z" style="opacity: 1; stroke-width: 0px; fill: rgb(208, 193, 155); fill-opacity: 1;"/></g><g class="text"/></g><g class="trace scatter tracef2c336" style="stroke-miterlimit: 2; opacity: 1;"><g class="fills"/><g class="errorbars"/><g class="lines"><path class="js-line" d="M24.2,278.25L114.37,100.06L204.53,79.02L294.7,55.79L384.86,21.75" style="vector-effect: none; fill: none; stroke: rgb(229, 127, 132); stroke-opacity: 1; stroke-width: 2px; opacity: 1;"/></g><g class="points"><path class="point" transform="translate(24.2,278.25)" d="M3,0A3,3 0 1,1 0,-3A3,3 0 0,1 3,0Z" style="opacity: 1; stroke-width: 0px; fill: rgb(229, 127, 132); fill-opacity: 1;"/><path class="point" transform="translate(114.37,100.06)" d="M3,0A3,3 0 1,1 0,-3A3,3 0 0,1 3,0Z" style="opacity: 1; stroke-width: 0px; fill: rgb(229, 127, 132); fill-opacity: 1;"/><path class="point" transform="translate(204.53,79.02)" d="M3,0A3,3 0 1,1 0,-3A3,3 0 0,1 3,0Z" style="opacity: 1; stroke-width: 0px; fill: rgb(229, 127, 132); fill-opacity: 1;"/><path class="point" transform="translate(294.7,55.79)" d="M3,0A3,3 0 1,1 0,-3A3,3 0 0,1 3,0Z" style="opacity: 1; stroke-width: 0px; fill: rgb(229, 127, 132); fill-opacity: 1;"/><path class="point" transform="translate(384.86,21.75)" d="M3,0A3,3 0 1,1 0,-3A3,3 0 0,1 3,0Z" style="opacity: 1; stroke-width: 0px; fill: rgb(229, 127, 132); fill-opacity: 1;"/></g><g class="text"/></g></g></g></g><path class="xlines-above crisp" d="M113,420.5H524.0625M113,59.5H524.0625" style="fill: none; stroke-width: 1px; stroke: rgb(0, 0, 0); stroke-opacity: 1;"/><path class="ylines-above crisp" d="M113.5,60V420M523.5625,60V420" style="fill: none; stroke-width: 1px; stroke: rgb(0, 0, 0); stroke-opacity: 1;"/><g class="overlines-above"/><g class="xaxislayer-above"><g class="xtick"><text text-anchor="middle" x="0" y="445" transform="translate(138.2,15)" style="font-family: Arial; font-size: 20px; fill: rgb(0, 0, 0); fill-opacity: 1; white-space: pre; opacity: 1;"><tspan style="font-style:italic">GFFx</tspan></text></g><g class="xtick"><text text-anchor="middle" x="0" y="445" transform="translate(228.37,15)" style="font-family: Arial; font-size: 20px; fill: rgb(0, 0, 0); fill-opacity: 1; white-space: pre; opacity: 1;"><tspan style="font-style:italic">gffread</tspan></text></g><g class="xtick"><text text-anchor="middle" x="0" y="445" transform="translate(318.53,15)" style="font-family: Arial; font-size: 20px; fill: rgb(0, 0, 0); fill-opacity: 1; white-space: pre; opacity: 1;"><tspan style="font-style:italic">gffutils</tspan></text></g><g class="xtick"><text text-anchor="middle" x="0" y="445" transform="translate(408.7,15)" style="font-family: Arial; font-size: 20px; fill: rgb(0, 0, 0); fill-opacity: 1; white-space: pre; opacity: 1;"><tspan style="font-style:italic">BCBio</tspan></text></g><g class="xtick"><text text-anchor="middle" x="0" y="445" transform="translate(498.86,15)" style="font-family: Arial; font-size: 20px; fill: rgb(0, 0, 0); fill-opacity: 1; white-space: pre; opacity: 1;"><tspan style="font-style:italic">AGAT</tspan></text></g></g><g class="yaxislayer-above"><g class="ytick"><text text-anchor="end" x="109" y="7" transform="translate(-15,357.85)" style="font-family: Arial; font-size: 20px; fill: rgb(0, 0, 0); fill-opacity: 1; white-space: pre; opacity: 1;">1</text></g><g class="ytick"><text text-anchor="end" x="109" y="7" style="font-family: Arial; font-size: 20px; fill: rgb(0, 0, 0); fill-opacity: 1; white-space: pre; opacity: 1;" transform="translate(-15,264.28999999999996)">10</text></g><g class="ytick"><text text-anchor="end" x="109" y="7" style="font-family: Arial; font-size: 20px; fill: rgb(0, 0, 0); fill-opacity: 1; white-space: pre; opacity: 1;" transform="translate(-15,170.73000000000002)">100</text></g><g class="ytick"><text text-anchor="end" x="109" y="7" style="font-family: Arial; font-size: 20px; fill: rgb(0, 0, 0); fill-opacity: 1; white-space: pre; opacity: 1;" transform="translate(-15,77.18)">1000</text></g></g><g class="overaxes-above"/></g><g class="subplot x2y2"><g class="layer-subplot"><g class="shapelayer"/><g class="imagelayer"/></g><g class="minor-gridlayer"><g class="x2"/><g class="y2"/></g><g class="gridlayer"><g class="x2"/><g class="y2"><path class="y2grid crisp" transform="translate(0,317.14)" d="M639.9375,0h409.0625" style="stroke: rgb(235, 240, 248); stroke-opacity: 1; stroke-width: 1px;"/><path class="y2grid crisp" transform="translate(0,214.29)" d="M639.9375,0h409.0625" style="stroke: rgb(235, 240, 248); stroke-opacity: 1; stroke-width: 1px;"/><path class="y2grid crisp" transform="translate(0,111.43)" d="M639.9375,0h409.0625" style="stroke: rgb(235, 240, 248); stroke-opacity: 1; stroke-width: 1px;"/></g></g><g class="zerolinelayer"/><g class="layer-between"><g class="shapelayer"/><g class="imagelayer"/></g><path class="xlines-below"/><path class="ylines-below"/><g class="overlines-below"/><g class="xaxislayer-below"/><g class="yaxislayer-below"/><g class="overaxes-below"/><g class="overplot"><g class="x2y2" transform="translate(639.9375,60)" clip-path="url(#clip3c189cx2y2plot)"><g class="scatterlayer mlayer"><g class="trace scatter trace62d326" style="stroke-miterlimit: 2; opacity: 1;"><g class="fills"/><g class="errorbars"/><g class="lines"><path class="js-line" d="M24.2,290.09L114.37,196.51L204.53,269.33L294.7,130.4L384.86,118.59" style="vector-effect: none; fill: none; stroke: rgb(47, 80, 97); stroke-opacity: 1; stroke-width: 2px; opacity: 1;"/></g><g class="points"><path class="point" transform="translate(24.2,290.09)" d="M3,0A3,3 0 1,1 0,-3A3,3 0 0,1 3,0Z" style="opacity: 1; stroke-width: 0px; fill: rgb(47, 80, 97); fill-opacity: 1;"/><path class="point" transform="translate(114.37,196.51)" d="M3,0A3,3 0 1,1 0,-3A3,3 0 0,1 3,0Z" style="opacity: 1; stroke-width: 0px; fill: rgb(47, 80, 97); fill-opacity: 1;"/><path class="point" transform="translate(204.53,269.33)" d="M3,0A3,3 0 1,1 0,-3A3,3 0 0,1 3,0Z" style="opacity: 1; stroke-width: 0px; fill: rgb(47, 80, 97); fill-opacity: 1;"/><path class="point" transform="translate(294.7,130.4)" d="M3,0A3,3 0 1,1 0,-3A3,3 0 0,1 3,0Z" style="opacity: 1; stroke-width: 0px; fill: rgb(47, 80, 97); fill-opacity: 1;"/><path class="point" transform="translate(384.86,118.59)" d="M3,0A3,3 0 1,1 0,-3A3,3 0 0,1 3,0Z" style="opacity: 1; stroke-width: 0px; fill: rgb(47, 80, 97); fill-opacity: 1;"/></g><g class="text"/></g><g class="trace scatter trace6ec70c" style="stroke-miterlimit: 2; opacity: 1;"><g class="fills"/><g class="errorbars"/><g class="lines"><path class="js-line" d="M24.2,282.93L114.37,191.07L204.53,267.27L294.7,119.45L384.86,108.13" style="vector-effect: none; fill: none; stroke: rgb(66, 151, 160); stroke-opacity: 1; stroke-width: 2px; opacity: 1;"/></g><g class="points"><path class="point" transform="translate(24.2,282.93)" d="M3,0A3,3 0 1,1 0,-3A3,3 0 0,1 3,0Z" style="opacity: 1; stroke-width: 0px; fill: rgb(66, 151, 160); fill-opacity: 1;"/><path class="point" transform="translate(114.37,191.07)" d="M3,0A3,3 0 1,1 0,-3A3,3 0 0,1 3,0Z" style="opacity: 1; stroke-width: 0px; fill: rgb(66, 151, 160); fill-opacity: 1;"/><path class="point" transform="translate(204.53,267.27)" d="M3,0A3,3 0 1,1 0,-3A3,3 0 0,1 3,0Z" style="opacity: 1; stroke-width: 0px; fill: rgb(66, 151, 160); fill-opacity: 1;"/><path class="point" transform="translate(294.7,119.45)" d="M3,0A3,3 0 1,1 0,-3A3,3 0 0,1 3,0Z" style="opacity: 1; stroke-width: 0px; fill: rgb(66, 151, 160); fill-opacity: 1;"/><path class="point" transform="translate(384.86,108.13)" d="M3,0A3,3 0 1,1 0,-3A3,3 0 0,1 3,0Z" style="opacity: 1; stroke-width: 0px; fill: rgb(66, 151, 160); fill-opacity: 1;"/></g><g class="text"/></g><g class="trace scatter trace820748" style="stroke-miterlimit: 2; opacity: 1;"><g class="fills"/><g class="errorbars"/><g class="lines"><path class="js-line" d="M24.2,260.74L114.37,163.93L204.53,268.39L294.7,105.19L384.86,93.51" style="vector-effect: none; fill: none; stroke: rgb(208, 193, 155); stroke-opacity: 1; stroke-width: 2px; opacity: 1;"/></g><g class="points"><path class="point" transform="translate(24.2,260.74)" d="M3,0A3,3 0 1,1 0,-3A3,3 0 0,1 3,0Z" style="opacity: 1; stroke-width: 0px; fill: rgb(208, 193, 155); fill-opacity: 1;"/><path class="point" transform="translate(114.37,163.93)" d="M3,0A3,3 0 1,1 0,-3A3,3 0 0,1 3,0Z" style="opacity: 1; stroke-width: 0px; fill: rgb(208, 193, 155); fill-opacity: 1;"/><path class="point" transform="translate(204.53,268.39)" d="M3,0A3,3 0 1,1 0,-3A3,3 0 0,1 3,0Z" style="opacity: 1; stroke-width: 0px; fill: rgb(208, 193, 155); fill-opacity: 1;"/><path class="point" transform="translate(294.7,105.19)" d="M3,0A3,3 0 1,1 0,-3A3,3 0 0,1 3,0Z" style="opacity: 1; stroke-width: 0px; fill: rgb(208, 193, 155); fill-opacity: 1;"/><path class="point" transform="translate(384.86,93.51)" d="M3,0A3,3 0 1,1 0,-3A3,3 0 0,1 3,0Z" style="opacity: 1; stroke-width: 0px; fill: rgb(208, 193, 155); fill-opacity: 1;"/></g><g class="text"/></g><g class="trace scatter trace238aac" style="stroke-miterlimit: 2; opacity: 1;"><g class="fills"/><g class="errorbars"/><g class="lines"><path class="js-line" d="M24.2,175.32L114.37,100.78L204.53,269.28L294.7,28.62L384.86,15.98" style="vector-effect: none; fill: none; stroke: rgb(229, 127, 132); stroke-opacity: 1; stroke-width: 2px; opacity: 1;"/></g><g class="points"><path class="point" transform="translate(24.2,175.32)" d="M3,0A3,3 0 1,1 0,-3A3,3 0 0,1 3,0Z" style="opacity: 1; stroke-width: 0px; fill: rgb(229, 127, 132); fill-opacity: 1;"/><path class="point" transform="translate(114.37,100.78)" d="M3,0A3,3 0 1,1 0,-3A3,3 0 0,1 3,0Z" style="opacity: 1; stroke-width: 0px; fill: rgb(229, 127, 132); fill-opacity: 1;"/><path class="point" transform="translate(204.53,269.28)" d="M3,0A3,3 0 1,1 0,-3A3,3 0 0,1 3,0Z" style="opacity: 1; stroke-width: 0px; fill: rgb(229, 127, 132); fill-opacity: 1;"/><path class="point" transform="translate(294.7,28.62)" d="M3,0A3,3 0 1,1 0,-3A3,3 0 0,1 3,0Z" style="opacity: 1; stroke-width: 0px; fill: rgb(229, 127, 132); fill-opacity: 1;"/><path class="point" transform="translate(384.86,15.98)" d="M3,0A3,3 0 1,1 0,-3A3,3 0 0,1 3,0Z" style="opacity: 1; stroke-width: 0px; fill: rgb(229, 127, 132); fill-opacity: 1;"/></g><g class="text"/></g></g></g></g><path class="xlines-above crisp" d="M638.9375,420.5H1050M638.9375,59.5H1050" style="fill: none; stroke-width: 1px; stroke: rgb(0, 0, 0); stroke-opacity: 1;"/><path class="ylines-above crisp" d="M639.4375,60V420M1049.5,60V420" style="fill: none; stroke-width: 1px; stroke: rgb(0, 0, 0); stroke-opacity: 1;"/><g class="overlines-above"/><g class="xaxislayer-above"><g class="x2tick"><text text-anchor="middle" x="0" y="445" transform="translate(664.1375,15)" style="font-family: Arial; font-size: 20px; fill: rgb(0, 0, 0); fill-opacity: 1; white-space: pre; opacity: 1;"><tspan style="font-style:italic">GFFx</tspan></text></g><g class="x2tick"><text text-anchor="middle" x="0" y="445" transform="translate(754.3075,15)" style="font-family: Arial; font-size: 20px; fill: rgb(0, 0, 0); fill-opacity: 1; white-space: pre; opacity: 1;"><tspan style="font-style:italic">gffread</tspan></text></g><g class="x2tick"><text text-anchor="middle" x="0" y="445" transform="translate(844.4675,15)" style="font-family: Arial; font-size: 20px; fill: rgb(0, 0, 0); fill-opacity: 1; white-space: pre; opacity: 1;"><tspan style="font-style:italic">gffutils</tspan></text></g><g class="x2tick"><text text-anchor="middle" x="0" y="445" transform="translate(934.6375,15)" style="font-family: Arial; font-size: 20px; fill: rgb(0, 0, 0); fill-opacity: 1; white-space: pre; opacity: 1;"><tspan style="font-style:italic">BCBio</tspan></text></g><g class="x2tick"><text text-anchor="middle" x="0" y="445" transform="translate(1024.7975000000001,15)" style="font-family: Arial; font-size: 20px; fill: rgb(0, 0, 0); fill-opacity: 1; white-space: pre; opacity: 1;"><tspan style="font-style:italic">AGAT</tspan></text></g></g><g class="yaxislayer-above"><g class="y2tick"><text text-anchor="end" x="634.9375" y="7" transform="translate(-15,420)" style="font-family: Arial; font-size: 20px; fill: rgb(0, 0, 0); fill-opacity: 1; white-space: pre; opacity: 1;">10</text></g><g class="y2tick"><text text-anchor="end" x="634.9375" y="7" style="font-family: Arial; font-size: 20px; fill: rgb(0, 0, 0); fill-opacity: 1; white-space: pre; opacity: 1;" transform="translate(-15,317.14)">100</text></g><g class="y2tick"><text text-anchor="end" x="634.9375" y="7" style="font-family: Arial; font-size: 20px; fill: rgb(0, 0, 0); fill-opacity: 1; white-space: pre; opacity: 1;" transform="translate(-15,214.29)">1000</text></g><g class="y2tick"><text text-anchor="end" x="634.9375" y="7" style="font-family: Arial; font-size: 20px; fill: rgb(0, 0, 0); fill-opacity: 1; white-space: pre; opacity: 1;" transform="translate(-15,111.43)">10000</text></g></g><g class="overaxes-above"/></g></g><g class="polarlayer"/><g class="smithlayer"/><g class="ternarylayer"/><g class="geolayer"/><g class="funnelarealayer"/><g class="pielayer"/><g class="iciclelayer"/><g class="treemaplayer"/><g class="sunburstlayer"/><g class="glimages"/><defs id="topdefs-3c189c"><g class="clips"/><clipPath id="legend3c189c"><rect width="170" height="158" x="0" y="0"/></clipPath></defs><g class="layer-above"><g class="imagelayer"/><g class="shapelayer"/></g><g class="infolayer"><g class="legend" pointer-events="all" transform="translate(1067.7,60)"><rect class="bg" shape-rendering="crispEdges" width="170" height="158" x="0" y="0" style="stroke: rgb(68, 68, 68); stroke-opacity: 1; fill: rgb(255, 255, 255); fill-opacity: 1; stroke-width: 0px;"/><g class="scrollbox" transform="" clip-path="url(#legend3c189c)"><text class="legendtitletext" text-anchor="start" x="2" y="31.200000000000003" style="font-family: Arial; font-size: 24px; fill: rgb(0, 0, 0); fill-opacity: 1; white-space: pre;">Dataset</text><g class="groups" transform=""><g class="traces" transform="translate(0,50.7)" style="opacity: 1;"><text class="legendtext" text-anchor="start" x="40" y="7.8" style="font-family: Arial; font-size: 20px; fill: rgb(0, 0, 0); fill-opacity: 1; white-space: pre;"><tspan style="font-style:italic">dm6</tspan></text><g class="layers" style="opacity: 1;"><g class="legendfill"/><g class="legendlines"><path class="js-line" d="M5,0h30" style="fill: none; stroke: rgb(47, 80, 97); stroke-opacity: 1; stroke-width: 2px;"/></g><g class="legendsymbols"><g class="legendpoints"><path class="scatterpts" transform="translate(20,0)" d="M3,0A3,3 0 1,1 0,-3A3,3 0 0,1 3,0Z" style="opacity: 1; stroke-width: 0px; fill: rgb(47, 80, 97); fill-opacity: 1;"/></g></g></g><rect class="legendtoggle" x="0" y="-14.5" width="165" height="29" style="fill: rgb(0, 0, 0); fill-opacity: 0;"/></g></g><g class="groups" transform=""><g class="traces" transform="translate(0,79.7)" style="opacity: 1;"><text class="legendtext" text-anchor="start" x="40" y="7.8" style="font-family: Arial; font-size: 20px; fill: rgb(0, 0, 0); fill-opacity: 1; white-space: pre;"><tspan style="font-style:italic">ceob_ps_1.0</tspan></text><g class="layers" style="opacity: 1;"><g class="legendfill"/><g class="legendlines"><path class="js-line" d="M5,0h30" style="fill: none; stroke: rgb(66, 151, 160); stroke-opacity: 1; stroke-width: 2px;"/></g><g class="legendsymbols"><g class="legendpoints"><path class="scatterpts" transform="translate(20,0)" d="M3,0A3,3 0 1,1 0,-3A3,3 0 0,1 3,0Z" style="opacity: 1; stroke-width: 0px; fill: rgb(66, 151, 160); fill-opacity: 1;"/></g></g></g><rect class="legendtoggle" x="0" y="-14.5" width="165" height="29" style="fill: rgb(0, 0, 0); fill-opacity: 0;"/></g></g><g class="groups" transform=""><g class="traces" transform="translate(0,108.7)" style="opacity: 1;"><text class="legendtext" text-anchor="start" x="40" y="7.8" style="font-family: Arial; font-size: 20px; fill: rgb(0, 0, 0); fill-opacity: 1; white-space: pre;"><tspan style="font-style:italic">tair10.1</tspan></text><g class="layers" style="opacity: 1;"><g class="legendfill"/><g class="legendlines"><path class="js-line" d="M5,0h30" style="fill: none; stroke: rgb(208, 193, 155); stroke-opacity: 1; stroke-width: 2px;"/></g><g class="legendsymbols"><g class="legendpoints"><path class="scatterpts" transform="translate(20,0)" d="M3,0A3,3 0 1,1 0,-3A3,3 0 0,1 3,0Z" style="opacity: 1; stroke-width: 0px; fill: rgb(208, 193, 155); fill-opacity: 1;"/></g></g></g><rect class="legendtoggle" x="0" y="-14.5" width="165" height="29" style="fill: rgb(0, 0, 0); fill-opacity: 0;"/></g></g><g class="groups" transform=""><g class="traces" transform="translate(0,137.7)" style="opacity: 1;"><text class="legendtext" text-anchor="start" x="40" y="7.8" style="font-family: Arial; font-size: 20px; fill: rgb(0, 0, 0); fill-opacity: 1; white-space: pre;"><tspan style="font-style:italic">hg38</tspan></text><g class="layers" style="opacity: 1;"><g class="legendfill"/><g class="legendlines"><path class="js-line" d="M5,0h30" style="fill: none; stroke: rgb(229, 127, 132); stroke-opacity: 1; stroke-width: 2px;"/></g><g class="legendsymbols"><g class="legendpoints"><path class="scatterpts" transform="translate(20,0)" d="M3,0A3,3 0 1,1 0,-3A3,3 0 0,1 3,0Z" style="opacity: 1; stroke-width: 0px; fill: rgb(229, 127, 132); fill-opacity: 1;"/></g></g></g><rect class="legendtoggle" x="0" y="-14.5" width="165" height="29" style="fill: rgb(0, 0, 0); fill-opacity: 0;"/></g></g></g><rect class="scrollbar" rx="20" ry="3" width="0" height="0" x="0" y="0" style="fill: rgb(128, 139, 164); fill-opacity: 1;"/></g><g class="g-gtitle"/><g class="g-xtitle"/><g class="g-x2title"/><g class="g-ytitle" transform="translate(0.2001953125,0)"><text class="ytitle" transform="rotate(-90,19.799999999999997,240)" x="19.799999999999997" y="240" text-anchor="middle" style="opacity: 1; font-family: Arial; font-size: 22px; fill: rgb(0, 0, 0); fill-opacity: 1; white-space: pre;">Wall clock time (s)</text></g><g class="g-y2title"><text class="y2title" transform="rotate(-90,532.7375,240)" x="532.7375" y="240" text-anchor="middle" style="opacity: 1; font-family: Arial; font-size: 22px; fill: rgb(0, 0, 0); fill-opacity: 1; white-space: pre;">Max RSS (Mb)</text></g></g></svg>