<svg class="main-svg" xmlns="http://www.w3.org/2000/svg" xmlns:xlink="http://www.w3.org/1999/xlink" width="1250" height="500" style="" viewBox="0 0 1250 500"><rect x="0" y="0" width="1250" height="500" style="fill: rgb(255, 255, 255); fill-opacity: 1;"/><defs id="defs-2e49a6"><g class="clips"><clipPath id="clip2e49a6xyplot" class="plotclip"><rect width="403.8125" height="360"/></clipPath><clipPath id="clip2e49a6x2y2plot" class="plotclip"><rect width="403.8125" height="360"/></clipPath><clipPath class="axesclip" id="clip2e49a6x"><rect x="127" y="0" width="403.8125" height="500"/></clipPath><clipPath class="axesclip" id="clip2e49a6y"><rect x="0" y="60" width="1250" height="360"/></clipPath><clipPath class="axesclip" id="clip2e49a6xy"><rect x="127" y="60" width="403.8125" height="360"/></clipPath><clipPath class="axesclip" id="clip2e49a6y2"><rect x="0" y="60" width="1250" height="360"/></clipPath><clipPath class="axesclip" id="clip2e49a6xy2"><rect x="127" y="60" width="403.8125" height="360"/></clipPath><clipPath class="axesclip" id="clip2e49a6x2"><rect x="646.1875" y="0" width="403.8125" height="500"/></clipPath><clipPath class="axesclip" id="clip2e49a6x2y"><rect x="646.1875" y="60" width="403.8125" height="360"/></clipPath><clipPath class="axesclip" id="clip2e49a6x2y2"><rect x="646.1875" y="60" width="403.8125" height="360"/></clipPath></g><g class="gradients"/><g class="patterns"/></defs><g class="bglayer"/><g class="layer-below"><g class="imagelayer"/><g class="shapelayer"/></g><g class="cartesianlayer"><g class="subplot xy"><g class="layer-subplot"><g class="shapelayer"/><g class="imagelayer"/></g><g class="minor-gridlayer"><g class="x"/><g class="y"/></g><g class="gridlayer"><g class="x"/><g class="y"><path class="ygrid crisp" transform="translate(0,398.25)" d="M127,0h403.8125" style="stroke: rgb(235, 240, 248); stroke-opacity: 1; stroke-width: 1px;"/><path class="ygrid crisp" transform="translate(0,334.06)" d="M127,0h403.8125" style="stroke: rgb(235, 240, 248); stroke-opacity: 1; stroke-width: 1px;"/><path class="ygrid crisp" transform="translate(0,269.86)" d="M127,0h403.8125" style="stroke: rgb(235, 240, 248); stroke-opacity: 1; stroke-width: 1px;"/><path class="ygrid crisp" transform="translate(0,205.67)" d="M127,0h403.8125" style="stroke: rgb(235, 240, 248); stroke-opacity: 1; stroke-width: 1px;"/><path class="ygrid crisp" transform="translate(0,141.47)" d="M127,0h403.8125" style="stroke: rgb(235, 240, 248); stroke-opacity: 1; stroke-width: 1px;"/><path class="ygrid crisp" transform="translate(0,77.28)" d="M127,0h403.8125" style="stroke: rgb(235, 240, 248); stroke-opacity: 1; stroke-width: 1px;"/></g></g><g class="zerolinelayer"/><g class="layer-between"><g class="shapelayer"/><g class="imagelayer"/></g><path class="xlines-below"/><path class="ylines-below"/><g class="overlines-below"/><g class="xaxislayer-below"/><g class="yaxislayer-below"/><g class="overaxes-below"/><g class="overplot"><g class="xy" transform="translate(127,60)" clip-path="url(#clip2e49a6xyplot)"><g class="scatterlayer mlayer"><g class="trace scatter trace61f772" style="stroke-miterlimit: 2; opacity: 1;"><g class="fills"/><g class="errorbars"/><g class="lines"><path class="js-line" d="M23.94,321.86L112.92,229.83L201.91,173.99L290.89,87.66L379.87,36.52" style="vector-effect: none; fill: none; stroke: rgb(47, 80, 97); stroke-opacity: 1; stroke-width: 2px; opacity: 1;"/></g><g class="points"><path class="point" transform="translate(23.94,321.86)" d="M3,0A3,3 0 1,1 0,-3A3,3 0 0,1 3,0Z" style="opacity: 1; stroke-width: 0px; fill: rgb(47, 80, 97); fill-opacity: 1;"/><path class="point" transform="translate(112.92,229.83)" d="M3,0A3,3 0 1,1 0,-3A3,3 0 0,1 3,0Z" style="opacity: 1; stroke-width: 0px; fill: rgb(47, 80, 97); fill-opacity: 1;"/><path class="point" transform="translate(201.91,173.99)" d="M3,0A3,3 0 1,1 0,-3A3,3 0 0,1 3,0Z" style="opacity: 1; stroke-width: 0px; fill: rgb(47, 80, 97); fill-opacity: 1;"/><path class="point" transform="translate(290.89,87.66)" d="M3,0A3,3 0 1,1 0,-3A3,3 0 0,1 3,0Z" style="opacity: 1; stroke-width: 0px; fill: rgb(47, 80, 97); fill-opacity: 1;"/><path class="point" transform="translate(379.87,36.52)" d="M3,0A3,3 0 1,1 0,-3A3,3 0 0,1 3,0Z" style="opacity: 1; stroke-width: 0px; fill: rgb(47, 80, 97); fill-opacity: 1;"/></g><g class="text"/></g><g class="trace scatter trace2b7b83" style="stroke-miterlimit: 2; opacity: 1;"><g class="fills"/><g class="errorbars"/><g class="lines"><path class="js-line" d="M23.94,338.25L112.92,238.97L201.91,171.72L290.89,110.27L379.87,70.75" style="vector-effect: none; fill: none; stroke: rgb(66, 151, 160); stroke-opacity: 1; stroke-width: 2px; opacity: 1;"/></g><g class="points"><path class="point" transform="translate(23.94,338.25)" d="M3,0A3,3 0 1,1 0,-3A3,3 0 0,1 3,0Z" style="opacity: 1; stroke-width: 0px; fill: rgb(66, 151, 160); fill-opacity: 1;"/><path class="point" transform="translate(112.92,238.97)" d="M3,0A3,3 0 1,1 0,-3A3,3 0 0,1 3,0Z" style="opacity: 1; stroke-width: 0px; fill: rgb(66, 151, 160); fill-opacity: 1;"/><path class="point" transform="translate(201.91,171.72)" d="M3,0A3,3 0 1,1 0,-3A3,3 0 0,1 3,0Z" style="opacity: 1; stroke-width: 0px; fill: rgb(66, 151, 160); fill-opacity: 1;"/><path class="point" transform="translate(290.89,110.27)" d="M3,0A3,3 0 1,1 0,-3A3,3 0 0,1 3,0Z" style="opacity: 1; stroke-width: 0px; fill: rgb(66, 151, 160); fill-opacity: 1;"/><path class="point" transform="translate(379.87,70.75)" d="M3,0A3,3 0 1,1 0,-3A3,3 0 0,1 3,0Z" style="opacity: 1; stroke-width: 0px; fill: rgb(66, 151, 160); fill-opacity: 1;"/></g><g class="text"/></g><g class="trace scatter trace420c60" style="stroke-miterlimit: 2; opacity: 1;"><g class="fills"/><g class="errorbars"/><g class="lines"><path class="js-line" d="M23.94,323.46L112.92,208.47L201.91,158.41L290.89,68.62L379.87,36.63" style="vector-effect: none; fill: none; stroke: rgb(208, 193, 155); stroke-opacity: 1; stroke-width: 2px; opacity: 1;"/></g><g class="points"><path class="point" transform="translate(23.94,323.46)" d="M3,0A3,3 0 1,1 0,-3A3,3 0 0,1 3,0Z" style="opacity: 1; stroke-width: 0px; fill: rgb(208, 193, 155); fill-opacity: 1;"/><path class="point" transform="translate(112.92,208.47)" d="M3,0A3,3 0 1,1 0,-3A3,3 0 0,1 3,0Z" style="opacity: 1; stroke-width: 0px; fill: rgb(208, 193, 155); fill-opacity: 1;"/><path class="point" transform="translate(201.91,158.41)" d="M3,0A3,3 0 1,1 0,-3A3,3 0 0,1 3,0Z" style="opacity: 1; stroke-width: 0px; fill: rgb(208, 193, 155); fill-opacity: 1;"/><path class="point" transform="translate(290.89,68.62)" d="M3,0A3,3 0 1,1 0,-3A3,3 0 0,1 3,0Z" style="opacity: 1; stroke-width: 0px; fill: rgb(208, 193, 155); fill-opacity: 1;"/><path class="point" transform="translate(379.87,36.63)" d="M3,0A3,3 0 1,1 0,-3A3,3 0 0,1 3,0Z" style="opacity: 1; stroke-width: 0px; fill: rgb(208, 193, 155); fill-opacity: 1;"/></g><g class="text"/></g><g class="trace scatter tracea1f6a4" style="stroke-miterlimit: 2; opacity: 1;"><g class="fills"/><g class="errorbars"/><g class="lines"><path class="js-line" d="M23.94,295.7L112.92,207.12L201.91,98.06L290.89,25.35L379.87,21.75" style="vector-effect: none; fill: none; stroke: rgb(229, 127, 132); stroke-opacity: 1; stroke-width: 2px; opacity: 1;"/></g><g class="points"><path class="point" transform="translate(23.94,295.7)" d="M3,0A3,3 0 1,1 0,-3A3,3 0 0,1 3,0Z" style="opacity: 1; stroke-width: 0px; fill: rgb(229, 127, 132); fill-opacity: 1;"/><path class="point" transform="translate(112.92,207.12)" d="M3,0A3,3 0 1,1 0,-3A3,3 0 0,1 3,0Z" style="opacity: 1; stroke-width: 0px; fill: rgb(229, 127, 132); fill-opacity: 1;"/><path class="point" transform="translate(201.91,98.06)" d="M3,0A3,3 0 1,1 0,-3A3,3 0 0,1 3,0Z" style="opacity: 1; stroke-width: 0px; fill: rgb(229, 127, 132); fill-opacity: 1;"/><path class="point" transform="translate(290.89,25.35)" d="M3,0A3,3 0 1,1 0,-3A3,3 0 0,1 3,0Z" style="opacity: 1; stroke-width: 0px; fill: rgb(229, 127, 132); fill-opacity: 1;"/><path class="point" transform="translate(379.87,21.75)" d="M3,0A3,3 0 1,1 0,-3A3,3 0 0,1 3,0Z" style="opacity: 1; stroke-width: 0px; fill: rgb(229, 127, 132); fill-opacity: 1;"/></g><g class="text"/></g></g></g></g><path class="xlines-above crisp" d="M126,420.5H531.8125M126,59.5H531.8125" style="fill: none; stroke-width: 1px; stroke: rgb(0, 0, 0); stroke-opacity: 1;"/><path class="ylines-above crisp" d="M126.5,60V420M531.3125,60V420" style="fill: none; stroke-width: 1px; stroke: rgb(0, 0, 0); stroke-opacity: 1;"/><g class="overlines-above"/><g class="xaxislayer-above"><g class="xtick"><text text-anchor="middle" x="0" y="445" transform="translate(150.94,15)" style="font-family: Arial; font-size: 20px; fill: rgb(0, 0, 0); fill-opacity: 1; white-space: pre; opacity: 1;"><tspan style="font-style:italic">GFFx</tspan></text></g><g class="xtick"><text text-anchor="middle" x="0" y="445" transform="translate(239.92000000000002,15)" style="font-family: Arial; font-size: 20px; fill: rgb(0, 0, 0); fill-opacity: 1; white-space: pre; opacity: 1;"><tspan style="font-style:italic">bedtools</tspan></text></g><g class="xtick"><text text-anchor="middle" x="0" y="445" transform="translate(328.90999999999997,15)" style="font-family: Arial; font-size: 20px; fill: rgb(0, 0, 0); fill-opacity: 1; white-space: pre; opacity: 1;"><tspan style="font-style:italic">BCBio</tspan></text></g><g class="xtick"><text text-anchor="middle" x="0" y="445" transform="translate(417.89,15)" style="font-family: Arial; font-size: 20px; fill: rgb(0, 0, 0); fill-opacity: 1; white-space: pre; opacity: 1;"><tspan style="font-style:italic">gffutils</tspan></text></g><g class="xtick"><text text-anchor="middle" x="0" y="445" transform="translate(506.87,15)" style="font-family: Arial; font-size: 20px; fill: rgb(0, 0, 0); fill-opacity: 1; white-space: pre; opacity: 1;"><tspan style="font-style:italic">AGAT</tspan></text></g></g><g class="yaxislayer-above"><g class="ytick"><text text-anchor="end" x="122" y="7" transform="translate(-15,398.25)" style="font-family: Arial; font-size: 20px; fill: rgb(0, 0, 0); fill-opacity: 1; white-space: pre; opacity: 1;">0</text></g><g class="ytick"><text text-anchor="end" x="122" y="7" style="font-family: Arial; font-size: 20px; fill: rgb(0, 0, 0); fill-opacity: 1; white-space: pre; opacity: 1;" transform="translate(-15,334.06)">1</text></g><g class="ytick"><text text-anchor="end" x="122" y="7" style="font-family: Arial; font-size: 20px; fill: rgb(0, 0, 0); fill-opacity: 1; white-space: pre; opacity: 1;" transform="translate(-15,269.86)">10</text></g><g class="ytick"><text text-anchor="end" x="122" y="7" style="font-family: Arial; font-size: 20px; fill: rgb(0, 0, 0); fill-opacity: 1; white-space: pre; opacity: 1;" transform="translate(-15,205.67)">100</text></g><g class="ytick"><text text-anchor="end" x="122" y="7" style="font-family: Arial; font-size: 20px; fill: rgb(0, 0, 0); fill-opacity: 1; white-space: pre; opacity: 1;" transform="translate(-15,141.47)">1000</text></g><g class="ytick"><text text-anchor="end" x="122" y="7" style="font-family: Arial; font-size: 20px; fill: rgb(0, 0, 0); fill-opacity: 1; white-space: pre; opacity: 1;" transform="translate(-15,77.28)">10000</text></g></g><g class="overaxes-above"/></g><g class="subplot x2y2"><g class="layer-subplot"><g class="shapelayer"/><g class="imagelayer"/></g><g class="minor-gridlayer"><g class="x2"/><g class="y2"/></g><g class="gridlayer"><g class="x2"/><g class="y2"><path class="y2grid crisp" transform="translate(0,317.14)" d="M646.1875,0h403.8125" style="stroke: rgb(235, 240, 248); stroke-opacity: 1; stroke-width: 1px;"/><path class="y2grid crisp" transform="translate(0,214.29)" d="M646.1875,0h403.8125" style="stroke: rgb(235, 240, 248); stroke-opacity: 1; stroke-width: 1px;"/><path class="y2grid crisp" transform="translate(0,111.43)" d="M646.1875,0h403.8125" style="stroke: rgb(235, 240, 248); stroke-opacity: 1; stroke-width: 1px;"/></g></g><g class="zerolinelayer"/><g class="layer-between"><g class="shapelayer"/><g class="imagelayer"/></g><path class="xlines-below"/><path class="ylines-below"/><g class="overlines-below"/><g class="xaxislayer-below"/><g class="yaxislayer-below"/><g class="overaxes-below"/><g class="overplot"><g class="x2y2" transform="translate(646.1875,60)" clip-path="url(#clip2e49a6x2y2plot)"><g class="scatterlayer mlayer"><g class="trace scatter tracee02039" style="stroke-miterlimit: 2; opacity: 1;"><g class="fills"/><g class="errorbars"/><g class="lines"><path class="js-line" d="M23.94,277.5L112.92,301.72L201.91,130.28L290.89,272.46L379.87,116.7" style="vector-effect: none; fill: none; stroke: rgb(47, 80, 97); stroke-opacity: 1; stroke-width: 2px; opacity: 1;"/></g><g class="points"><path class="point" transform="translate(23.94,277.5)" d="M3,0A3,3 0 1,1 0,-3A3,3 0 0,1 3,0Z" style="opacity: 1; stroke-width: 0px; fill: rgb(47, 80, 97); fill-opacity: 1;"/><path class="point" transform="translate(112.92,301.72)" d="M3,0A3,3 0 1,1 0,-3A3,3 0 0,1 3,0Z" style="opacity: 1; stroke-width: 0px; fill: rgb(47, 80, 97); fill-opacity: 1;"/><path class="point" transform="translate(201.91,130.28)" d="M3,0A3,3 0 1,1 0,-3A3,3 0 0,1 3,0Z" style="opacity: 1; stroke-width: 0px; fill: rgb(47, 80, 97); fill-opacity: 1;"/><path class="point" transform="translate(290.89,272.46)" d="M3,0A3,3 0 1,1 0,-3A3,3 0 0,1 3,0Z" style="opacity: 1; stroke-width: 0px; fill: rgb(47, 80, 97); fill-opacity: 1;"/><path class="point" transform="translate(379.87,116.7)" d="M3,0A3,3 0 1,1 0,-3A3,3 0 0,1 3,0Z" style="opacity: 1; stroke-width: 0px; fill: rgb(47, 80, 97); fill-opacity: 1;"/></g><g class="text"/></g><g class="trace scatter trace05acf4" style="stroke-miterlimit: 2; opacity: 1;"><g class="fills"/><g class="errorbars"/><g class="lines"><path class="js-line" d="M23.94,271.22L112.92,301.29L201.91,119.42L290.89,272.65L379.87,105.97" style="vector-effect: none; fill: none; stroke: rgb(66, 151, 160); stroke-opacity: 1; stroke-width: 2px; opacity: 1;"/></g><g class="points"><path class="point" transform="translate(23.94,271.22)" d="M3,0A3,3 0 1,1 0,-3A3,3 0 0,1 3,0Z" style="opacity: 1; stroke-width: 0px; fill: rgb(66, 151, 160); fill-opacity: 1;"/><path class="point" transform="translate(112.92,301.29)" d="M3,0A3,3 0 1,1 0,-3A3,3 0 0,1 3,0Z" style="opacity: 1; stroke-width: 0px; fill: rgb(66, 151, 160); fill-opacity: 1;"/><path class="point" transform="translate(201.91,119.42)" d="M3,0A3,3 0 1,1 0,-3A3,3 0 0,1 3,0Z" style="opacity: 1; stroke-width: 0px; fill: rgb(66, 151, 160); fill-opacity: 1;"/><path class="point" transform="translate(290.89,272.65)" d="M3,0A3,3 0 1,1 0,-3A3,3 0 0,1 3,0Z" style="opacity: 1; stroke-width: 0px; fill: rgb(66, 151, 160); fill-opacity: 1;"/><path class="point" transform="translate(379.87,105.97)" d="M3,0A3,3 0 1,1 0,-3A3,3 0 0,1 3,0Z" style="opacity: 1; stroke-width: 0px; fill: rgb(66, 151, 160); fill-opacity: 1;"/></g><g class="text"/></g><g class="trace scatter traceb5cdc0" style="stroke-miterlimit: 2; opacity: 1;"><g class="fills"/><g class="errorbars"/><g class="lines"><path class="js-line" d="M23.94,246.42L112.92,301.08L201.91,104.7L290.89,271.12L379.87,91.33" style="vector-effect: none; fill: none; stroke: rgb(208, 193, 155); stroke-opacity: 1; stroke-width: 2px; opacity: 1;"/></g><g class="points"><path class="point" transform="translate(23.94,246.42)" d="M3,0A3,3 0 1,1 0,-3A3,3 0 0,1 3,0Z" style="opacity: 1; stroke-width: 0px; fill: rgb(208, 193, 155); fill-opacity: 1;"/><path class="point" transform="translate(112.92,301.08)" d="M3,0A3,3 0 1,1 0,-3A3,3 0 0,1 3,0Z" style="opacity: 1; stroke-width: 0px; fill: rgb(208, 193, 155); fill-opacity: 1;"/><path class="point" transform="translate(201.91,104.7)" d="M3,0A3,3 0 1,1 0,-3A3,3 0 0,1 3,0Z" style="opacity: 1; stroke-width: 0px; fill: rgb(208, 193, 155); fill-opacity: 1;"/><path class="point" transform="translate(290.89,271.12)" d="M3,0A3,3 0 1,1 0,-3A3,3 0 0,1 3,0Z" style="opacity: 1; stroke-width: 0px; fill: rgb(208, 193, 155); fill-opacity: 1;"/><path class="point" transform="translate(379.87,91.33)" d="M3,0A3,3 0 1,1 0,-3A3,3 0 0,1 3,0Z" style="opacity: 1; stroke-width: 0px; fill: rgb(208, 193, 155); fill-opacity: 1;"/></g><g class="text"/></g><g class="trace scatter trace7a2849" style="stroke-miterlimit: 2; opacity: 1;"><g class="fills"/><g class="errorbars"/><g class="lines"><path class="js-line" d="M23.94,206.73L112.92,298.84L201.91,28.61L290.89,272.54L379.87,9.14" style="vector-effect: none; fill: none; stroke: rgb(229, 127, 132); stroke-opacity: 1; stroke-width: 2px; opacity: 1;"/></g><g class="points"><path class="point" transform="translate(23.94,206.73)" d="M3,0A3,3 0 1,1 0,-3A3,3 0 0,1 3,0Z" style="opacity: 1; stroke-width: 0px; fill: rgb(229, 127, 132); fill-opacity: 1;"/><path class="point" transform="translate(112.92,298.84)" d="M3,0A3,3 0 1,1 0,-3A3,3 0 0,1 3,0Z" style="opacity: 1; stroke-width: 0px; fill: rgb(229, 127, 132); fill-opacity: 1;"/><path class="point" transform="translate(201.91,28.61)" d="M3,0A3,3 0 1,1 0,-3A3,3 0 0,1 3,0Z" style="opacity: 1; stroke-width: 0px; fill: rgb(229, 127, 132); fill-opacity: 1;"/><path class="point" transform="translate(290.89,272.54)" d="M3,0A3,3 0 1,1 0,-3A3,3 0 0,1 3,0Z" style="opacity: 1; stroke-width: 0px; fill: rgb(229, 127, 132); fill-opacity: 1;"/><path class="point" transform="translate(379.87,9.14)" d="M3,0A3,3 0 1,1 0,-3A3,3 0 0,1 3,0Z" style="opacity: 1; stroke-width: 0px; fill: rgb(229, 127, 132); fill-opacity: 1;"/></g><g class="text"/></g></g></g></g><path class="xlines-above crisp" d="M645.1875,420.5H1051M645.1875,59.5H1051" style="fill: none; stroke-width: 1px; stroke: rgb(0, 0, 0); stroke-opacity: 1;"/><path class="ylines-above crisp" d="M645.6875,60V420M1050.5,60V420" style="fill: none; stroke-width: 1px; stroke: rgb(0, 0, 0); stroke-opacity: 1;"/><g class="overlines-above"/><g class="xaxislayer-above"><g class="x2tick"><text text-anchor="middle" x="0" y="445" transform="translate(670.1275,15)" style="font-family: Arial; font-size: 20px; fill: rgb(0, 0, 0); fill-opacity: 1; white-space: pre; opacity: 1;"><tspan style="font-style:italic">GFFx</tspan></text></g><g class="x2tick"><text text-anchor="middle" x="0" y="445" transform="translate(759.1075,15)" style="font-family: Arial; font-size: 20px; fill: rgb(0, 0, 0); fill-opacity: 1; white-space: pre; opacity: 1;"><tspan style="font-style:italic">bedtools</tspan></text></g><g class="x2tick"><text text-anchor="middle" x="0" y="445" transform="translate(848.0975,15)" style="font-family: Arial; font-size: 20px; fill: rgb(0, 0, 0); fill-opacity: 1; white-space: pre; opacity: 1;"><tspan style="font-style:italic">BCBio</tspan></text></g><g class="x2tick"><text text-anchor="middle" x="0" y="445" transform="translate(937.0775,15)" style="font-family: Arial; font-size: 20px; fill: rgb(0, 0, 0); fill-opacity: 1; white-space: pre; opacity: 1;"><tspan style="font-style:italic">gffutils</tspan></text></g><g class="x2tick"><text text-anchor="middle" x="0" y="445" transform="translate(1026.0575,15)" style="font-family: Arial; font-size: 20px; fill: rgb(0, 0, 0); fill-opacity: 1; white-space: pre; opacity: 1;"><tspan style="font-style:italic">AGAT</tspan></text></g></g><g class="yaxislayer-above"><g class="y2tick"><text text-anchor="end" x="641.1875" y="7" transform="translate(-15,420)" style="font-family: Arial; font-size: 20px; fill: rgb(0, 0, 0); fill-opacity: 1; white-space: pre; opacity: 1;">10</text></g><g class="y2tick"><text text-anchor="end" x="641.1875" y="7" style="font-family: Arial; font-size: 20px; fill: rgb(0, 0, 0); fill-opacity: 1; white-space: pre; opacity: 1;" transform="translate(-15,317.14)">100</text></g><g class="y2tick"><text text-anchor="end" x="641.1875" y="7" style="font-family: Arial; font-size: 20px; fill: rgb(0, 0, 0); fill-opacity: 1; white-space: pre; opacity: 1;" transform="translate(-15,214.29)">1000</text></g><g class="y2tick"><text text-anchor="end" x="641.1875" y="7" style="font-family: Arial; font-size: 20px; fill: rgb(0, 0, 0); fill-opacity: 1; white-space: pre; opacity: 1;" transform="translate(-15,111.43)">10000</text></g></g><g class="overaxes-above"/></g></g><g class="polarlayer"/><g class="smithlayer"/><g class="ternarylayer"/><g class="geolayer"/><g class="funnelarealayer"/><g class="pielayer"/><g class="iciclelayer"/><g class="treemaplayer"/><g class="sunburstlayer"/><g class="glimages"/><defs id="topdefs-2e49a6"><g class="clips"/><clipPath id="legend2e49a6"><rect width="170" height="158" x="0" y="0"/></clipPath></defs><g class="layer-above"><g class="imagelayer"/><g class="shapelayer"/></g><g class="infolayer"><g class="legend" pointer-events="all" transform="translate(1068.46,60)"><rect class="bg" shape-rendering="crispEdges" width="170" height="158" x="0" y="0" style="stroke: rgb(68, 68, 68); stroke-opacity: 1; fill: rgb(255, 255, 255); fill-opacity: 1; stroke-width: 0px;"/><g class="scrollbox" transform="" clip-path="url(#legend2e49a6)"><text class="legendtitletext" text-anchor="start" x="2" y="31.200000000000003" style="font-family: Arial; font-size: 24px; fill: rgb(0, 0, 0); fill-opacity: 1; white-space: pre;">Dataset</text><g class="groups" transform=""><g class="traces" transform="translate(0,50.7)" style="opacity: 1;"><text class="legendtext" text-anchor="start" x="40" y="7.8" style="font-family: Arial; font-size: 20px; fill: rgb(0, 0, 0); fill-opacity: 1; white-space: pre;"><tspan style="font-style:italic">dm6</tspan></text><g class="layers" style="opacity: 1;"><g class="legendfill"/><g class="legendlines"><path class="js-line" d="M5,0h30" style="fill: none; stroke: rgb(47, 80, 97); stroke-opacity: 1; stroke-width: 2px;"/></g><g class="legendsymbols"><g class="legendpoints"><path class="scatterpts" transform="translate(20,0)" d="M3,0A3,3 0 1,1 0,-3A3,3 0 0,1 3,0Z" style="opacity: 1; stroke-width: 0px; fill: rgb(47, 80, 97); fill-opacity: 1;"/></g></g></g><rect class="legendtoggle" x="0" y="-14.5" width="165" height="29" style="fill: rgb(0, 0, 0); fill-opacity: 0;"/></g></g><g class="groups" transform=""><g class="traces" transform="translate(0,79.7)" style="opacity: 1;"><text class="legendtext" text-anchor="start" x="40" y="7.8" style="font-family: Arial; font-size: 20px; fill: rgb(0, 0, 0); fill-opacity: 1; white-space: pre;"><tspan style="font-style:italic">ceob_ps_1.0</tspan></text><g class="layers" style="opacity: 1;"><g class="legendfill"/><g class="legendlines"><path class="js-line" d="M5,0h30" style="fill: none; stroke: rgb(66, 151, 160); stroke-opacity: 1; stroke-width: 2px;"/></g><g class="legendsymbols"><g class="legendpoints"><path class="scatterpts" transform="translate(20,0)" d="M3,0A3,3 0 1,1 0,-3A3,3 0 0,1 3,0Z" style="opacity: 1; stroke-width: 0px; fill: rgb(66, 151, 160); fill-opacity: 1;"/></g></g></g><rect class="legendtoggle" x="0" y="-14.5" width="165" height="29" style="fill: rgb(0, 0, 0); fill-opacity: 0;"/></g></g><g class="groups" transform=""><g class="traces" transform="translate(0,108.7)" style="opacity: 1;"><text class="legendtext" text-anchor="start" x="40" y="7.8" style="font-family: Arial; font-size: 20px; fill: rgb(0, 0, 0); fill-opacity: 1; white-space: pre;"><tspan style="font-style:italic">tair10.1</tspan></text><g class="layers" style="opacity: 1;"><g class="legendfill"/><g class="legendlines"><path class="js-line" d="M5,0h30" style="fill: none; stroke: rgb(208, 193, 155); stroke-opacity: 1; stroke-width: 2px;"/></g><g class="legendsymbols"><g class="legendpoints"><path class="scatterpts" transform="translate(20,0)" d="M3,0A3,3 0 1,1 0,-3A3,3 0 0,1 3,0Z" style="opacity: 1; stroke-width: 0px; fill: rgb(208, 193, 155); fill-opacity: 1;"/></g></g></g><rect class="legendtoggle" x="0" y="-14.5" width="165" height="29" style="fill: rgb(0, 0, 0); fill-opacity: 0;"/></g></g><g class="groups" transform=""><g class="traces" transform="translate(0,137.7)" style="opacity: 1;"><text class="legendtext" text-anchor="start" x="40" y="7.8" style="font-family: Arial; font-size: 20px; fill: rgb(0, 0, 0); fill-opacity: 1; white-space: pre;"><tspan style="font-style:italic">hg38</tspan></text><g class="layers" style="opacity: 1;"><g class="legendfill"/><g class="legendlines"><path class="js-line" d="M5,0h30" style="fill: none; stroke: rgb(229, 127, 132); stroke-opacity: 1; stroke-width: 2px;"/></g><g class="legendsymbols"><g class="legendpoints"><path class="scatterpts" transform="translate(20,0)" d="M3,0A3,3 0 1,1 0,-3A3,3 0 0,1 3,0Z" style="opacity: 1; stroke-width: 0px; fill: rgb(229, 127, 132); fill-opacity: 1;"/></g></g></g><rect class="legendtoggle" x="0" y="-14.5" width="165" height="29" style="fill: rgb(0, 0, 0); fill-opacity: 0;"/></g></g></g><rect class="scrollbar" rx="20" ry="3" width="0" height="0" x="0" y="0" style="fill: rgb(128, 139, 164); fill-opacity: 1;"/></g><g class="g-gtitle"/><g class="g-xtitle"/><g class="g-x2title"/><g class="g-ytitle" transform="translate(0.2001953125,0)"><text class="ytitle" transform="rotate(-90,19.799999999999997,240)" x="19.799999999999997" y="240" text-anchor="middle" style="opacity: 1; font-family: Arial; font-size: 22px; fill: rgb(0, 0, 0); fill-opacity: 1; white-space: pre;">Wall clock time (s)</text></g><g class="g-y2title"><text class="y2title" transform="rotate(-90,538.9875,240)" x="538.9875" y="240" text-anchor="middle" style="opacity: 1; font-family: Arial; font-size: 22px; fill: rgb(0, 0, 0); fill-opacity: 1; white-space: pre;">Max RSS (Mb)</text></g></g></svg>